<svg xmlns="http://www.w3.org/2000/svg" viewBox="0 0 285.77 295.38"><defs><style>.cls-1,.cls-13{fill:#ef7918;}.cls-1{stroke:#3f0808;stroke-miterlimit:10;stroke-width:2.2px;}.cls-2{fill:#9e4910;opacity:0.4;}.cls-3,.cls-6{fill:#540a0a;}.cls-16,.cls-3{opacity:0.3;}.cls-4{fill:#1ec6c6;}.cls-5{fill:#c45e12;}.cls-7{fill:#230909;}.cls-8{fill:#f40b0b;}.cls-9{fill:#c10a0a;}.cls-10{fill:#fff;}.cls-11{fill:#ef914b;}.cls-11,.cls-15{opacity:0.5;}.cls-12,.cls-16{fill:#843c0b;}.cls-14{fill:#f2ded1;}.cls-17{fill:#070000;}.cls-18{fill:#35dde5;}.cls-19{fill:#421d09;}.cls-20{fill:#fcfcfc;}</style></defs><title>Asset 1</title><g id="Layer_2" data-name="Layer 2"><g id="Layer_1-2" data-name="Layer 1"><path class="cls-1" d="M165,208.35c-6.22-12.43-4.66-31.09,4.66-45.08,18.89-31,51.84-31.61,84.61-30.21l30.16-87.57s-56.88-21.31-76.21-27.3C49.78-30.86,25.36,36.27,11.39,86.43-17.39,189.84,19.11,245,60.31,267.28c112.39,60.86,179.23-20.47,179.23-20.47V226.93C211.94,235.09,179.48,232.57,165,208.35Z"/><path class="cls-2" d="M162.38,205.94c-5.95-11.9-4.46-29.75,4.46-43.13,18.07-29.7,52.37-38.3,83.72-37l26.08-75.73S222.23,29.73,203.73,24C52.19-22.93,28.82,41.3,15.46,89.3c-27.54,98.93,7.38,151.69,46.8,173,107.53,58.23,171.48-19.59,171.48-19.59l1.78-10.07C209.11,240.46,176.28,229.11,162.38,205.94Z"/><path class="cls-3" d="M22.49,240.85a106.65,106.65,0,0,0,36.06,31.94c112.39,60.86,179.23-20.47,179.23-20.47V232.43c-19.5,5.76-41.42,6.18-57.74-2.61-11.58,9.56-24.6,16.25-39.63,18.9C100.07,256.15,58.3,256.32,22.49,240.85Z"/><circle class="cls-4" cx="69.7" cy="88.92" r="2.66"/><path class="cls-5" d="M35.25,152.65l108.37-39.34s20.89,83.75-40.93,104C102.69,217.28,53.8,231.89,35.25,152.65Z"/><path class="cls-6" d="M29.91,153.17l111.27-39.34s18,83.74-43.84,104C97.35,217.81,48.46,232.41,29.91,153.17Z"/><path class="cls-7" d="M140.47,115,86,134.25c21.84,15.37,37.64,37.93,40.07,64.74C151.64,167,140.47,115,140.47,115Z"/><path class="cls-8" d="M141.79,162.45s-8.47,48-48.93,55.35C92.86,217.81,89,172.86,141.79,162.45Z"/><path class="cls-9" d="M121,179c3-4,4.78-8.5,7.48-12.59-35.85,13.29-32.94,47.3-32.94,47.3,30.7-5.54,41.24-36.72,43.94-47.16C133,170,126.47,173.51,121,179Z"/><path class="cls-10" d="M126.08,131.44l16.79-5.94-1.69-11.67L29.91,153.17l3,11.21,86.34-30.54V123.39A49.78,49.78,0,0,0,126.08,131.44Z"/><ellipse class="cls-11" cx="146.1" cy="110.6" rx="4.92" ry="12.79" transform="translate(-16.68 194.76) rotate(-64.46)"/><ellipse class="cls-11" cx="24.56" cy="152.58" rx="12.78" ry="4.92" transform="translate(-124.47 111.66) rotate(-65.5)"/><path class="cls-12" d="M133.32,106.32s2.39,7.8,20.51,12.43"/><path class="cls-12" d="M32.19,141.3s3,7.57-8.14,22.56"/><line class="cls-13" x1="30.72" y1="149.35" x2="123.58" y2="117.08"/><path class="cls-14" d="M30.72,149.35c3.82-1.49,7.67-2.89,11.5-4.34l11.55-4.21c7.7-2.79,15.45-5.47,23.17-8.22s15.49-5.33,23.27-7.92l11.67-3.86c3.91-1.24,7.8-2.52,11.72-3.72-3.82,1.49-7.67,2.9-11.5,4.35l-11.55,4.21c-7.7,2.79-15.44,5.47-23.17,8.21s-15.49,5.33-23.27,7.92l-11.67,3.86C38.53,146.87,34.63,148.15,30.72,149.35Z"/><g class="cls-15"><path class="cls-14" d="M109.15,178.44c-1.19,1.28-2.35,2.59-3.43,4s-2.15,2.75-3.14,4.18a65.19,65.19,0,0,0-5.31,9,47.64,47.64,0,0,0-3.53,9.77l-.52,2.55c-.18.85-.19,1.72-.3,2.59l-.14,1.3c0,.43,0,.87,0,1.31v2.63a33.11,33.11,0,0,1,.35-10.51,44.47,44.47,0,0,1,3.41-10,58.84,58.84,0,0,1,5.54-9A52.77,52.77,0,0,1,109.15,178.44Z"/></g><circle class="cls-12" cx="57.8" cy="80.84" r="19.64"/><ellipse class="cls-12" cx="57.8" cy="84.77" rx="19.24" ry="19.74" transform="translate(-36.24 125.79) rotate(-79.27)"/><path class="cls-16" d="M147.12,42.55c2,7.63-18.49,27.75-48.22,35.53s-50,2.92-57.44.3C30.54,74.51,64.69,65.18,91.67,50.46,132.42,28.24,145.13,34.92,147.12,42.55Z"/><ellipse class="cls-12" cx="138.43" cy="61.32" rx="19.24" ry="19.74" transform="translate(52.42 185.92) rotate(-79.27)"/><circle class="cls-12" cx="138.43" cy="58.43" r="19.64"/><circle class="cls-10" cx="56.42" cy="79.46" r="19.64"/><circle class="cls-10" cx="134.27" cy="56.12" r="21.25"/><circle class="cls-17" cx="146.29" cy="63.98" r="9.24"/><circle class="cls-17" cx="67.04" cy="84.77" r="9.24"/><circle class="cls-4" cx="151.14" cy="63.98" r="2.66"/><g class="cls-15"><path class="cls-18" d="M114.4,54.73a25.25,25.25,0,0,0,1,4.77,22.85,22.85,0,0,0,1.8,4.47,18.39,18.39,0,0,0,6.29,7A19.62,19.62,0,0,0,127.74,73a26.55,26.55,0,0,0,4.67,1.06,43.57,43.57,0,0,0,9.72.07q-1.2.26-2.41.49l-2.45.33c-.82,0-1.65.1-2.47.11s-1.66,0-2.48-.08a22.76,22.76,0,0,1-4.92-.9A20.06,20.06,0,0,1,122.83,72a17.61,17.61,0,0,1-6.46-7.58A21.72,21.72,0,0,1,114.4,54.73Z"/></g><g class="cls-15"><path class="cls-18" d="M36.69,77.55a25.25,25.25,0,0,0,1,4.77,22.84,22.84,0,0,0,1.8,4.47,18.38,18.38,0,0,0,6.29,7A19.63,19.63,0,0,0,50,95.82a26.55,26.55,0,0,0,4.67,1.06,43.57,43.57,0,0,0,9.72.07q-1.2.26-2.41.49l-2.45.33c-.82,0-1.65.1-2.47.11s-1.66,0-2.48-.08a22.77,22.77,0,0,1-4.92-.9,20.06,20.06,0,0,1-4.57-2.12,17.61,17.61,0,0,1-6.46-7.58A21.71,21.71,0,0,1,36.69,77.55Z"/></g><path class="cls-19" d="M76.54,34.85c5,5.35,9.68,10.89,14.36,16.46L89.71,51c4.19-2.06,8.39-4.11,12.62-6.09S110.79,41,115,39.08s8.54-3.79,12.84-5.61,8.63-3.59,13-5.24c-4.08,2.3-8.21,4.48-12.37,6.61s-8.34,4.21-12.54,6.24-8.42,4-12.66,6-8.5,3.87-12.77,5.76l-.74.33-.46-.61C85,46.74,80.64,40.89,76.54,34.85Z"/><path class="cls-19" d="M73.71,56a68.41,68.41,0,0,1-7.87,1.66q-4,.63-7.93,1c-2.65.25-5.31.4-8,.48a67.64,67.64,0,0,1-8-.19,67.64,67.64,0,0,1,7.87-1.66c2.64-.42,5.28-.76,7.93-1s5.31-.4,8-.47A68.41,68.41,0,0,1,73.71,56Z"/><g class="cls-15"><path class="cls-20" d="M250.56,125.85c4.36-13,8.84-26,13.26-39l13.46-38.92.38,1a494.2,494.2,0,0,0-55-22.69,413.93,413.93,0,0,0-57.44-15.54,270.34,270.34,0,0,0-29.48-3.9,185.7,185.7,0,0,0-29.7,0,128.2,128.2,0,0,0-29.1,5.74A92.7,92.7,0,0,0,50.55,26.1,90.19,90.19,0,0,1,76.66,11.78a122.73,122.73,0,0,1,29.23-6.28,187.15,187.15,0,0,1,29.93-.4,266.5,266.5,0,0,1,29.69,3.78A384.42,384.42,0,0,1,223.24,24.4q14.12,4.92,27.93,10.69c9.19,3.85,18.31,7.87,27.21,12.43l.61.31-.23.64-14,38.73C260,100.08,255.36,113,250.56,125.85Z"/></g><g class="cls-15"><path class="cls-20" d="M162.5,208.41a51.2,51.2,0,0,0,13.83,15.14,56,56,0,0,0,18.32,8.87,69.13,69.13,0,0,0,10,1.92c1.7.13,3.4.35,5.11.37.85,0,1.71.07,2.57.08l2.57,0a104.31,104.31,0,0,0,20.43-2.63l.71-.16,0,.7c-.05,2.46-.16,4.93-.25,7.39s-.18,4.93-.31,7.39c-.13-2.46-.23-4.93-.31-7.39s-.19-4.93-.25-7.39l.7.54A89.39,89.39,0,0,1,215,236.62l-2.63.09c-.88,0-1.76,0-2.63-.06-1.76,0-3.51-.21-5.26-.34a63.31,63.31,0,0,1-10.36-2,53.06,53.06,0,0,1-18.66-9.62A46.17,46.17,0,0,1,162.5,208.41Z"/></g></g></g></svg>