<svg xmlns="http://www.w3.org/2000/svg" width="37.5" height="37.5" fill="#000"><path d="M18.75 0a18.75 18.75 0 0 0-6.83 36.22 18.08 18.08 0 0 1 .08-5.39c.34-1.46 2.2-9.32 2.2-9.32a6.75 6.75 0 0 1-.56-2.78c0-2.61 1.51-4.56 3.39-4.56a2.36 2.36 0 0 1 2.37 2.65c0 1.6-1 4-1.55 6.24a2.73 2.73 0 0 0 2.78 3.39c3.33 0 5.89-3.52 5.89-8.59 0-4.49-3.22-7.63-7.83-7.63a8.12 8.12 0 0 0-8.47 8.14 7.34 7.34 0 0 0 1.4 4.28.56.56 0 0 1 .13.54c-.14.59-.46 1.86-.52 2.12s-.27.42-.63.25c-2.34-1.09-3.8-4.51-3.8-7.26C6.78 12.38 11.07 7 19.16 7c6.51 0 11.56 4.64 11.56 10.83 0 6.46-4.07 11.66-9.73 11.66a5 5 0 0 1-4.29-2.15l-1.17 4.46a20.83 20.83 0 0 1-2.33 4.91 18.51 18.51 0 0 0 5.55.84 18.75 18.75 0 0 0 0-37.5Z"/></svg>