<svg xmlns="http://www.w3.org/2000/svg" width="44.45" height="36.12" fill="#000"><path d="M44.45 4.28a18.48 18.48 0 0 1-5.24 1.43 9.15 9.15 0 0 0 4-5 18.44 18.44 0 0 1-5.79 2.21 9.13 9.13 0 0 0-15.77 6.2 9 9 0 0 0 .24 2.08 25.89 25.89 0 0 1-18.8-9.53 9.13 9.13 0 0 0 2.83 12.17 8.89 8.89 0 0 1-4.13-1.14v.12a9.12 9.12 0 0 0 7.31 8.94 9.08 9.08 0 0 1-2.4.32 8.88 8.88 0 0 1-1.7-.17 9.14 9.14 0 0 0 8.52 6.34 18.32 18.32 0 0 1-11.32 3.9A17.37 17.37 0 0 1 0 32a25.81 25.81 0 0 0 14 4.1c16.77 0 25.94-13.89 25.94-25.94V8.98a18.9 18.9 0 0 0 4.51-4.7Z"/></svg>